<svg xmlns="http://www.w3.org/2000/svg" xmlns:v="https://vecta.io/nano" width="1280" height="720"><defs><style>.pathOne,.pathTwo{stroke-dasharray:500;animation:dash 12s ease-in-out infinite}.pathTwo{stroke-dasharray:150}</style><clipPath id="A"><path fill="#fff" stroke="#707070" stroke-width="1" d="M0 0h1280v720H0z"/></clipPath></defs><g fill="none" stroke-linejoin="round" stroke-width="13" clip-path="url(#A)"><circle cx="1007" cy="-16" r="63" stroke="#09f755"/><g stroke-linecap="round"><path stroke="#efc518" d="M1007.5 121c77.6 0 140.5-62.008 140.5-138.5S1085.1-156 1007.5-156 867-93.992 867-17.5"/><path stroke="#f80332" d="M1304.83 940c-84.957 0-153.83-75.435-153.83-168.488a179.77 179.77 0 0 1 22.7-88.142M1410 602h-104.8c-33.533 0-64.564 11.6-89.845 31.3" class="pathTwo"/><g stroke="#09f755"><path d="M1151.5 141c-31.756 0-57.5 25.744-57.5 57.5s25.744 57.5 57.5 57.5 57.5-25.744 57.5-57.5V141M894.5 593.582c-36.727 0-66.5-29.455-66.5-65.8S857.773 462 894.5 462s66.5 29.455 66.5 65.8V729"/></g><path stroke="#f80332" d="M885.5 295.708c-31.756 0-57.5 25.36-57.5 56.646S853.744 409 885.5 409s57.5-25.36 57.5-56.646V121" class="pathOne"/></g><g stroke="#efc518"><path d="M1089.5 598a59.45 59.45 0 0 1-59.5-59.4V369.4a59.45 59.45 0 0 1 59.5-59.4h0a59.45 59.45 0 0 1 59.5 59.4v169.2a59.45 59.45 0 0 1-59.5 59.4z"/><g stroke-linecap="round"><path d="M894.75 679h-4.81A61.97 61.97 0 0 0 828 741h0a61.97 61.97 0 0 0 61.939 62h143.122A61.97 61.97 0 0 0 1095 741h0a61.97 61.97 0 0 0-61.939-62h-4.81"/></g></g><path stroke="#09f755" stroke-linecap="round" d="M867.5 53v184"/></g></svg>